<svg xmlns="http://www.w3.org/2000/svg" viewBox="0 0 40 60">
  <path fill="#1085c7" d="M22.5 49.4c-1.4.7-3.6.7-5 0l-13-7.5C3.1 41.1 2 39.1 2 37.6v-15c0-1.6 1.1-3.5 2.5-4.2l13-7.5c1.4-.8 3.6-.8 5 0l13 7.5c1.4.8 2.5 2.8 2.5 4.2v15c0 1.6-1.1 3.5-2.5 4.2l-13 7.6z"/>
  <path fill="#fff" d="M26.5 26c1.1.5 2.4-.1 2.9-1.2s-.1-2.4-1.2-2.9c-.8-.4-1.4-.4-1.9-.1-.4.1-.8.2-1.1.5-.4.1-.8.1-1 0s-.5-.4-.8-.8c-.2-.5-.4-.9-.5-1v-.1c-.1-.3-.4-.6-.6-.8l-.1-.1-.2-.2c-.6-.4-1.4-.6-2.1-.3-.6.2-1 .8-1.2 1.2-.1.4-.2.8-.5 1.1s-.4.6-.8.8c-.2.1-.6.1-1 0-.5-.1-.9-.2-1.1-.4h-.1c-.5-.2-1.1-.2-1.8 0-1.1.5-1.6 1.8-1.2 2.9 0 .1.1.1.1.2.1.2.2.6.4 1.1.1.4.1.8 0 1 0 .1-.2.4-.6.5l-.6.3c-.2 0-.5 0-.7.1a2.34 2.34 0 00-.7 3.7c.2.3.5.5.8.6.2.1.4.1.6.2.1.1.3.1.4.2.4.2.6.4.8.8.1.2.1.6 0 1 0 .2-.1.3-.1.5-.2.2-.4.5-.5.8-.5 1.1.1 2.4 1.2 2.9.8.4 1.4.4 1.9.1.4-.1.8-.2 1.1-.5.4-.1.8-.1 1 0s.5.4.8.8c.2.5.4.9.5 1v.1c.1.3.4.6.6.8l.1.1.2.2c.6.4 1.4.6 2.1.3.6-.2 1-.8 1.2-1.2.1-.4.2-.8.5-1.1s.4-.6.8-.8c.2-.1.6-.1 1 0 .5.1.9.2 1.1.4h.1c.5.2 1.1.2 1.8 0 1.1-.5 1.6-1.8 1.2-2.9-.5-1.1-1.8-1.6-2.9-1.2-.6.2-1 .6-1.2 1.2v.1c-.1.2-.2.6-.5 1s-.4.6-.8.8c-.2.1-.6.1-1 0-.5-.1-.9-.2-1.1-.4h-.1-.1c-.1 0-.1-.1-.2-.1-.6-.2-1.1-.2-1.8 0h-.1c-.2.1-.6.2-1.1.4-.4.1-.8.1-1 0s-.5-.4-.8-.8c-.1-.1-.1-.2-.1-.3 0-.2 0-.5-.1-.7-.2-.6-.6-1-1.2-1.2h-.1c-.1 0-.1-.1-.2-.1-.1-.1-.3-.1-.4-.1-.2-.1-.3-.1-.5-.2-.4-.2-.6-.4-.8-.8-.1-.2-.1-.6 0-1 .1-.3.2-.6.3-.8.1-.1.2-.3.2-.4.2-.5.2-1.1 0-1.6-.1-.4-.2-.8-.5-1.1-.1-.4-.1-.8 0-1s.4-.5.8-.8c.5-.2.9-.4 1-.5h.1c.5-.2 1-.6 1.2-1.2.1-.2.2-.5.2-.7.1-.1.1-.3.2-.4.2-.4.4-.6.8-.8.2-.1.6-.1 1 0 .5.1.9.2 1.1.4h.1c.1 0 .2.1.3.1.6.2 1.1.2 1.8 0h.1c.2-.1.6-.2 1.1-.4.4-.1.8-.1 1 0s.5.4.8.8c.2.5.4.9.5 1v.1c.2.2.6.7 1.2.9z"/>
</svg>
